<svg width="92" height="20" viewBox="0 0 92 20" fill="none" xmlns="http://www.w3.org/2000/svg">
<path fill-rule="evenodd" clip-rule="evenodd" d="M19.5927 20H6.56004C2.9311 20 1.03472e-06 17.0079 0 13.3036V0H19.5927V20ZM9.80507 6.34032H13.3817V9.99103H16.3301V3.33048H9.80507V6.34032Z" fill="#0F265C"/>
<path d="M70.7359 11.5816C71.9815 11.5481 73.1688 12.1189 73.9334 13.1189L73.4068 13.6641C73.1106 13.9797 72.6293 14.0218 72.2842 13.7626C71.8198 13.3933 71.2458 13.1947 70.6562 13.1998C70.0339 13.196 69.4356 13.4454 68.9952 13.8924C68.5251 14.3459 68.2852 14.9694 68.2852 15.7658C68.2852 16.562 68.532 17.2009 69.0021 17.67C69.4701 18.1323 70.1024 18.3818 70.7547 18.3622C71.6194 18.3827 72.4368 17.9615 72.9316 17.2404L74.066 18.4627C73.2393 19.4875 72.1508 20 70.8006 20C69.5675 19.9999 68.5369 19.6158 67.7346 18.8472C66.9324 18.0786 66.5322 17.0778 66.5322 15.8089C66.5322 14.54 66.9325 13.5273 67.7346 12.7466C68.5369 11.9658 69.5334 11.5816 70.7359 11.5816Z" fill="#0F265C"/>
<path d="M40.4678 11.5816C41.7129 11.5487 42.8991 12.1194 43.6632 13.1189L43.1371 13.6641C42.834 13.9812 42.3456 14.0181 41.9994 13.7504C41.5372 13.3892 40.9691 13.1954 40.3861 13.1998C39.7639 13.1968 39.1663 13.4462 38.7255 13.8924C38.2571 14.3459 38.0151 14.966 38.0151 15.7658C38.0151 16.5655 38.2571 17.2044 38.7255 17.67C39.1935 18.1323 39.8258 18.3818 40.478 18.3622C41.3487 18.3824 42.1707 17.9547 42.6635 17.2249L43.7979 18.4472C42.9735 19.472 41.885 19.9845 40.5325 19.9845C39.2994 19.9845 38.2688 19.5999 37.4666 18.8313C36.6644 18.0628 36.2626 17.0622 36.2625 15.7934C36.2625 14.5245 36.6697 13.5151 37.4702 12.7343C38.2708 11.9536 39.2673 11.5694 40.4715 11.5694L40.4678 11.5816Z" fill="#0F265C"/>
<path d="M64.9856 11.6939V19.8563H63.4374C63.1327 19.8564 62.8505 19.6932 62.6948 19.427L59.7053 14.3493V19.8632H58.002V11.7008H59.5604C59.865 11.7011 60.1471 11.8642 60.303 12.1301L63.2941 17.2334V11.6939H64.9856Z" fill="#0F265C"/>
<path d="M77.3363 11.6939V14.8999H80.7038V12.5753C80.7038 12.0886 81.0921 11.6939 81.5709 11.6939H82.3989V19.8596H80.7038V16.4786H77.3363V19.8563H75.633V11.6939H77.3363Z" fill="#0F265C"/>
<path fill-rule="evenodd" clip-rule="evenodd" d="M87.9364 11.6939C88.293 11.6943 88.6129 11.9172 88.7421 12.255L91.6665 19.8596L89.9017 19.8563L89.2597 18.2499H86.1562L85.5259 19.8563H83.7612L86.9005 11.6939H87.9364ZM86.7165 16.7159H88.7095L87.713 14.0499L86.7165 16.7159Z" fill="#0F265C"/>
<path fill-rule="evenodd" clip-rule="evenodd" d="M28.4476 11.6939C29.3998 11.6939 30.1543 11.9381 30.7283 12.4402C31.296 12.9272 31.5799 13.5906 31.5799 14.4307C31.6095 15.2155 31.2898 15.9722 30.7096 16.4909C30.1253 17.0154 29.369 17.2717 28.4407 17.2717H26.8941V19.8563H25.1908V11.6939H28.4476ZM26.8941 13.2902V15.6775H28.1445C29.3026 15.6774 29.8867 15.2948 29.8868 14.4657C29.8868 13.6365 29.3248 13.2902 28.1445 13.2902H26.8941Z" fill="#0F265C"/>
<path d="M34.7143 11.6939L34.7293 19.8563H33.0261V11.6939H34.7143Z" fill="#0F265C"/>
<path d="M47.0617 11.6939V14.8999H50.4357V12.5753C50.4357 12.0886 50.824 11.6939 51.3028 11.6939H52.1325V19.8563H50.4292V16.4786H47.0617V19.8563H45.3584V11.6939H47.0617Z" fill="#0F265C"/>
<path d="M55.9085 11.6939L55.9187 11.6955V19.8563H54.2154V11.6939H55.9085Z" fill="#0F265C"/>
<path d="M54.3261 0.358479C55.5714 0.328716 56.7565 0.902545 57.5182 1.90429L56.9921 2.44954C56.6961 2.76421 56.2159 2.80666 55.8711 2.54842C55.406 2.17997 54.8323 1.98162 54.2426 1.98567C53.6205 1.98262 53.0229 2.23193 52.5821 2.67822C52.1137 3.13177 51.8733 3.75142 51.8733 4.55118C51.8733 5.35097 52.1137 5.98979 52.5821 6.45547L52.5853 6.46239C53.0533 6.92471 53.6859 7.17463 54.3383 7.15493C55.2061 7.17147 56.0236 6.74246 56.5131 6.01398L57.6476 7.23631C56.8221 8.2599 55.7343 8.77193 54.3842 8.77195C53.1596 8.77195 52.1274 8.38905 51.3268 7.62043C50.5263 6.85182 50.124 5.85138 50.124 4.58251C50.124 3.31358 50.5245 2.30082 51.3268 1.52181C52.129 0.742833 53.1236 0.358515 54.3261 0.358479Z" fill="#0F265C"/>
<path fill-rule="evenodd" clip-rule="evenodd" d="M62.613 0.358479C63.715 0.331989 64.7798 0.764786 65.5598 1.55639C66.3589 2.34065 66.7955 3.43116 66.7621 4.55972C66.7956 5.69446 66.3595 6.79168 65.5598 7.58421C64.776 8.36877 63.7128 8.79737 62.613 8.77195C61.5084 8.79754 60.4418 8.36086 59.6626 7.56468C58.8834 6.76851 58.4596 5.68221 58.4907 4.55972C58.4669 3.44034 58.8932 2.35943 59.6711 1.56657C60.449 0.773669 61.5115 0.337481 62.613 0.358479ZM62.6638 1.9873C61.9968 1.95824 61.3515 2.23102 60.9012 2.73193C60.4639 3.23532 60.2304 3.88846 60.2485 4.55972C60.2286 5.23447 60.4621 5.89197 60.9012 6.39851C61.3355 6.89868 61.9196 7.14269 62.6638 7.14273C63.3226 7.17501 63.9603 6.90126 64.3964 6.39851C64.8349 5.89161 65.0679 5.23436 65.0487 4.55972C65.0603 3.88783 64.816 3.23714 64.3671 2.74373C63.9377 2.24759 63.3138 1.97047 62.6638 1.9873Z" fill="#0F265C"/>
<path fill-rule="evenodd" clip-rule="evenodd" d="M36.6031 0.486653C36.9629 0.485199 37.2863 0.709778 37.4157 1.05102L40.3401 8.64704H38.5774L37.9333 7.03734H34.8298L34.1996 8.64378H32.4369L35.581 0.486653H36.6031ZM35.3922 5.50495H37.3848L36.3887 2.84098L35.3922 5.50495Z" fill="#0F265C"/>
<path fill-rule="evenodd" clip-rule="evenodd" d="M28.7951 0.502115C30.478 0.50212 31.5665 1.29852 31.5665 2.75268C31.5721 3.40562 31.2659 4.02059 30.7454 4.40307C30.7443 4.40228 30.7432 4.40142 30.7421 4.40063V4.40592C30.7433 4.40507 30.7442 4.40392 30.7454 4.40307C31.4244 4.89086 31.7638 5.50654 31.7638 6.26179C31.7841 6.92829 31.5006 7.56701 30.9956 7.99274C30.4932 8.42198 29.8291 8.64375 28.9929 8.64378H25.1908V0.502115H28.7951ZM26.8941 5.20547V7.04914H28.6075C29.5563 7.04914 30.0487 6.79999 30.0488 6.10757L30.0418 6.10228C30.0418 5.50856 29.5735 5.20551 28.6454 5.20547H26.8941ZM26.8941 2.08943V3.75162H28.5192C29.3984 3.7516 29.8442 3.47467 29.8473 2.91951C29.8474 2.92208 29.8478 2.92466 29.8478 2.92724V2.91341C29.8478 2.9154 29.8474 2.91752 29.8473 2.91951C29.8439 2.30922 29.4431 2.08943 28.4509 2.08943H26.8941Z" fill="#0F265C"/>
<path d="M43.1489 0.486653C43.4538 0.486215 43.7361 0.649417 43.8915 0.915932L46.8725 6.01398V0.486653H48.5757V8.64378H47.0242C46.7201 8.6432 46.4381 8.48096 46.2812 8.21613L43.2938 3.14046V8.64378H41.5905V0.486653H43.1489Z" fill="#0F265C"/>
</svg>
