<svg width="129" height="28" viewBox="0 0 129 28" fill="none" xmlns="http://www.w3.org/2000/svg">
<path fill-rule="evenodd" clip-rule="evenodd" d="M78.2721 16.3715H75.9017V27.7989H78.2864V16.374L78.2721 16.3715ZM65.8862 16.3715H63.5015V27.7989H65.8862V23.0704L70.6006 23.0704V27.7989H72.9853V16.3715H71.824C71.1536 16.3715 70.6102 16.9238 70.6102 17.6051V20.8601L65.8862 20.8601V16.3715ZM48.5998 16.3715H46.2366V27.7989H48.6213L48.5998 16.3715ZM39.4022 18.6061C41.0548 18.6061 41.8417 19.0908 41.8417 20.2517C41.8417 21.4126 41.0238 21.9483 39.4022 21.9483H37.6519V18.6061H39.4022ZM39.8195 16.3715H35.2672V27.7989H37.6519V24.1804H39.8171C41.1168 24.1804 42.1756 23.8217 42.9935 23.0874C43.8059 22.3612 44.2534 21.302 44.2121 20.2033C44.2121 19.027 43.8146 18.098 43.0197 17.4161C42.2161 16.7133 41.1597 16.3715 39.8267 16.3715H39.8195ZM42.0682 8.55054C42.0682 9.51999 41.3791 9.86899 40.0508 9.86899H37.6519V7.28784H40.1033C41.4029 7.28784 42.0587 7.71197 42.0587 8.54327L42.0682 8.55054ZM41.7869 4.07898C41.7869 4.86181 41.1621 5.25201 39.9268 5.25201H37.6519V2.92534L39.8314 2.92534C41.2265 2.92534 41.7869 3.23556 41.7869 4.09837V4.07898ZM43.0388 6.16813C43.7705 5.63289 44.2009 4.76982 44.193 3.85359C44.193 1.81775 42.6692 0.702892 40.3131 0.702892L35.2672 0.702892V12.1011H40.5898C41.7606 12.1011 42.6906 11.7909 43.3941 11.1899C44.1012 10.5938 44.498 9.69945 44.4696 8.76624C44.4696 7.70713 43.9927 6.84432 43.0388 6.16086V6.16813ZM52.339 7.70713H49.5489L50.9439 3.97719L52.339 7.70713ZM54.0082 12.106H56.4763L52.3819 1.47118C52.2008 0.993433 51.7481 0.679034 51.2444 0.68107L49.8136 0.68107L45.4115 12.1011H47.8797L48.762 9.85202L53.1068 9.85202L54.0082 12.106ZM56.66 16.197C54.974 16.197 53.579 16.7351 52.4582 17.8281C51.3374 18.9212 50.7675 20.3341 50.7675 22.1106C50.7675 23.8871 51.3302 25.288 52.4534 26.3641C53.5766 27.4402 55.0193 27.9782 56.7458 27.9782C58.6392 27.9782 60.163 27.2608 61.3172 25.826L59.729 24.115C59.0391 25.1367 57.8885 25.7356 56.6695 25.7073C55.7562 25.7349 54.8709 25.3851 54.2157 24.7378C53.5599 24.0859 53.2213 23.1916 53.2213 22.0719C53.2213 20.9522 53.5599 20.0845 54.2157 19.4495C54.8328 18.8247 55.6696 18.4758 56.5407 18.4801C57.357 18.4739 58.1518 18.7452 58.799 19.2508C59.2837 19.6256 59.9675 19.5736 60.3919 19.1296L61.1288 18.3662C60.059 16.9668 58.3982 16.1679 56.6552 16.214L56.66 16.197ZM65.8385 12.1011H68.0061V0.681078L65.6215 0.681078V8.41967L61.4483 1.28213C61.2307 0.909013 60.8354 0.680466 60.4086 0.681078H58.2267V12.1011H60.6113V4.39647L64.794 11.5025C65.0136 11.8733 65.4079 12.1003 65.8337 12.1011H65.8385ZM73.6148 9.03769C72.9591 8.38574 72.6228 7.49142 72.6228 6.37172C72.6228 5.25201 72.9591 4.38436 73.6148 3.74937C74.232 3.12453 75.0688 2.77561 75.9399 2.77993C76.7654 2.77425 77.5686 3.05177 78.2196 3.5676C78.7024 3.92915 79.3743 3.87 79.7887 3.42945L80.5256 2.66602C79.4592 1.26355 77.8002 0.460064 76.0567 0.501732C74.3732 0.501732 72.9805 1.03977 71.8574 2.1304C70.7342 3.22102 70.1738 4.63883 70.1738 6.41534C70.1738 8.19185 70.7366 9.59269 71.8574 10.6688C72.9781 11.7449 74.4232 12.2805 76.1378 12.2805C78.028 12.2805 79.5511 11.5639 80.7068 10.1307L79.1186 8.41967C78.4333 9.4396 77.2885 10.04 76.0734 10.0168C75.1601 10.0444 74.2748 9.69464 73.6196 9.04738L73.6148 9.03769ZM83.3848 16.3812L81.2028 16.3812V27.8085H83.5875V20.0894L87.7725 27.1978C87.9905 27.5706 88.3856 27.799 88.8122 27.7989H90.9799V16.3715H88.6119V24.1271L84.4245 16.9823C84.2062 16.6099 83.8113 16.3816 83.3848 16.3812ZM91.0681 6.38383C91.095 7.32832 90.7686 8.24806 90.1548 8.95771C89.5442 9.66158 88.6518 10.0451 87.7296 9.99986C86.6875 9.99986 85.8696 9.65813 85.2615 8.95771C84.6468 8.24856 84.3203 7.32848 84.3482 6.38383C84.3228 5.44397 84.6492 4.52931 85.2615 3.8245C85.892 3.12318 86.7957 2.74159 87.7296 2.78235C88.6397 2.75878 89.5131 3.14671 90.1143 3.84147C90.7428 4.5323 91.0845 5.4431 91.0681 6.38383ZM91.7835 10.6179C92.9032 9.50834 93.5139 7.9725 93.4671 6.38383C93.5138 4.80372 92.9025 3.27688 91.7835 2.17887C90.6915 1.07059 89.2009 0.464613 87.6581 0.501732C86.1159 0.472336 84.6287 1.08317 83.5396 2.19323C82.4506 3.30329 81.8538 4.81661 81.8872 6.38383C81.8437 7.95537 82.4367 9.47619 83.5275 10.5909C84.6184 11.7055 86.1116 12.3163 87.6581 12.2805C89.1979 12.3161 90.6862 11.7163 91.7835 10.6179ZM96.6029 24.7378C95.9448 24.081 95.599 23.1867 95.599 22.0719C95.599 20.957 95.9352 20.0845 96.5934 19.4495C97.2099 18.8238 98.0471 18.4747 98.9184 18.4801C99.7441 18.4729 100.548 18.7506 101.198 19.2677C101.681 19.6307 102.355 19.5715 102.77 19.1296L103.506 18.3662C102.436 16.9662 100.774 16.1671 99.0305 16.214C97.3469 16.214 95.9519 16.752 94.8287 17.8451C93.7056 18.9381 93.1452 20.3559 93.1452 22.1325C93.1452 23.909 93.7056 25.3098 94.8287 26.3859C95.9519 27.462 97.3946 28 99.1211 28C101.011 28 102.535 27.2826 103.692 25.8478L102.104 24.1368C101.412 25.1463 100.267 25.736 99.0567 25.7073C98.1434 25.7349 97.2581 25.3851 96.6029 24.7378ZM112.985 27.8037H115.358V16.3715L114.199 16.3715C113.529 16.3715 112.985 16.9238 112.985 17.6051V20.8601H108.271V16.3715H105.886V27.7989H108.271V23.0704H112.985V27.8037ZM124.193 23.4024H121.403L122.798 19.6701L124.193 23.4024ZM128.333 27.8037L124.239 17.1568C124.058 16.6838 123.61 16.372 123.111 16.3715H121.661L117.266 27.7989H119.736L120.619 25.5497H124.964L125.863 27.7989L128.333 27.8037Z" fill="#0F265C"/>
<path fill-rule="evenodd" clip-rule="evenodd" d="M27.43 0V27.9999H9.18404C4.10351 27.9999 0 23.8112 0 18.6251L0 0L27.43 0ZM22.8624 4.6625H13.7272V8.8762L18.7345 8.8762V13.9875H22.8624V4.6625Z" fill="#FFDD00"/>
<path fill-rule="evenodd" clip-rule="evenodd" d="M22.864 4.66666L13.7288 4.66666V8.88036H18.736V13.9917H22.864V4.66666Z" fill="#0F265C"/>
</svg>
