<svg width="260" height="231" viewBox="0 0 260 231" fill="none" xmlns="http://www.w3.org/2000/svg">
<path d="M35.1451 173.274H28.5345L26.6926 155.979H36.987L35.1451 173.274Z" fill="#F4F5F5" stroke="#222D5A" stroke-width="0.75" stroke-miterlimit="10"/>
<path d="M231.466 173.274H224.855L223.013 155.979H233.308L231.466 173.274Z" fill="#F4F5F5" stroke="#222D5A" stroke-width="0.75" stroke-miterlimit="10"/>
<path d="M232.923 156.369H27.0775C19.7352 156.369 13.057 152.249 9.85954 145.785C-12.8883 99.8096 9.43237 87.2572 19.9192 83.9997C22.7677 83.1165 24.7048 80.5353 24.7048 77.6128V65.0501C24.7048 59.3169 29.4565 54.6695 35.3185 54.6695H224.682C230.544 54.6695 235.295 59.3169 235.295 65.0501V77.6128C235.295 80.5353 237.232 83.1145 240.081 83.9997C250.568 87.2551 272.888 99.8075 250.141 145.785C246.943 152.249 240.263 156.369 232.923 156.369Z" fill="#D3D9E7"/>
<path d="M221.943 113.715H38.057C31.7806 113.715 26.6926 118.691 26.6926 124.83V124.832C26.6926 130.97 31.7806 135.947 38.057 135.947H221.943C228.22 135.947 233.308 130.97 233.308 124.832V124.83C233.308 118.691 228.22 113.715 221.943 113.715Z" fill="#D3D9E7" stroke="#222D5A" stroke-width="0.75" stroke-miterlimit="10"/>
<path d="M39.9391 113.715V103.645C39.9391 96.1408 35.7478 89.2349 29.0125 85.6423" stroke="#0F265C" stroke-width="0.75" stroke-miterlimit="10"/>
<path d="M220.059 113.715V103.645C220.059 96.1408 224.25 89.2349 230.986 85.6423" stroke="#0F265C" stroke-width="0.75" stroke-miterlimit="10"/>
<path d="M81.9223 88.3617C83.4581 88.3617 84.7032 87.144 84.7032 85.6419C84.7032 84.1398 83.4581 82.9221 81.9223 82.9221C80.3865 82.9221 79.1415 84.1398 79.1415 85.6419C79.1415 87.144 80.3865 88.3617 81.9223 88.3617Z" fill="#D3D9E7" stroke="#222D5A" stroke-width="0.75" stroke-miterlimit="10"/>
<path d="M84.0413 83.8197L85.9741 81.9293" stroke="#222D5A" stroke-width="0.75" stroke-miterlimit="10"/>
<path d="M84.0413 87.5174L85.9742 89.4078" stroke="#222D5A" stroke-width="0.75" stroke-miterlimit="10"/>
<path d="M79.7907 83.8198L77.8578 81.9294" stroke="#222D5A" stroke-width="0.75" stroke-miterlimit="10"/>
<path d="M79.7908 87.5174L77.8579 89.4078" stroke="#222D5A" stroke-width="0.75" stroke-miterlimit="10"/>
<path d="M130.004 88.3617C131.54 88.3617 132.785 87.144 132.785 85.6419C132.785 84.1398 131.54 82.9221 130.004 82.9221C128.469 82.9221 127.224 84.1398 127.224 85.6419C127.224 87.144 128.469 88.3617 130.004 88.3617Z" fill="#D3D9E7" stroke="#222D5A" stroke-width="0.75" stroke-miterlimit="10"/>
<path d="M132.125 83.8198L134.058 81.9294" stroke="#222D5A" stroke-width="0.75" stroke-miterlimit="10"/>
<path d="M132.125 87.5174L134.058 89.4078" stroke="#222D5A" stroke-width="0.75" stroke-miterlimit="10"/>
<path d="M127.875 83.8197L125.942 81.9293" stroke="#222D5A" stroke-width="0.75" stroke-miterlimit="10"/>
<path d="M127.875 87.5174L125.942 89.4078" stroke="#222D5A" stroke-width="0.75" stroke-miterlimit="10"/>
<path d="M178.089 88.3617C179.624 88.3617 180.869 87.144 180.869 85.6419C180.869 84.1398 179.624 82.9221 178.089 82.9221C176.553 82.9221 175.308 84.1398 175.308 85.6419C175.308 87.144 176.553 88.3617 178.089 88.3617Z" fill="#D3D9E7" stroke="#222D5A" stroke-width="0.75" stroke-miterlimit="10"/>
<path d="M180.21 83.8198L182.14 81.9294" stroke="#222D5A" stroke-width="0.75" stroke-miterlimit="10"/>
<path d="M180.21 87.5174L182.14 89.4078" stroke="#222D5A" stroke-width="0.75" stroke-miterlimit="10"/>
<path d="M175.957 83.8197L174.026 81.9293" stroke="#222D5A" stroke-width="0.75" stroke-miterlimit="10"/>
<path d="M175.957 87.5174L174.026 89.4078" stroke="#222D5A" stroke-width="0.75" stroke-miterlimit="10"/>
<path d="M117.506 105.176C115.859 104.841 115.005 103.78 115.005 103.78L115.428 102.973C115.428 102.973 116.282 104.032 117.929 104.369L117.506 105.176Z" fill="#0F265C"/>
<path d="M136.714 90.7523C135.067 90.2662 134.293 89.1101 134.293 89.1101L135.289 87.7036C135.289 87.7036 136.063 88.8598 137.71 89.3459L136.714 90.7523Z" fill="#0F265C"/>
<path d="M129.833 84.8549C128.826 85.6491 127.765 85.6284 127.765 85.6284L127.295 84.4288C127.295 84.4288 128.357 84.4495 129.364 83.6553L129.833 84.8549Z" fill="#0F265C"/>
<path d="M151.93 59.1549C151.31 59.9987 150.466 60.2097 150.466 60.2097L149.825 59.3596C149.825 59.3596 150.669 59.1487 151.289 58.3048L151.93 59.1549Z" fill="#0F265C"/>
<path d="M104.053 97.6123C103.336 99.0787 102.097 99.631 102.097 99.631L100.872 98.4955C100.872 98.4955 102.113 97.9432 102.828 96.4768L104.053 97.6123Z" fill="#0F265C"/>
<path d="M84.4789 61.9012C83.8741 63.0739 82.8633 63.4999 82.8633 63.4999L81.8926 62.5609C81.8926 62.5609 82.9056 62.1349 83.5083 60.9622L84.4789 61.9012Z" fill="#0F265C"/>
<path d="M133.405 67.068C132.075 66.2883 130.863 64.2717 130.863 64.2717L131.455 64.0918C131.455 64.0918 132.667 66.1104 133.997 66.8881L133.405 67.068Z" fill="#0F265C"/>
<path d="M70.27 92.6071C71.744 93.0766 73.3829 94.7829 73.3829 94.7829L72.8458 95.087C72.8458 95.087 71.2069 93.3827 69.7329 92.9112L70.27 92.6071Z" fill="#0F265C"/>
<path d="M156.833 125.771C155.047 126.02 151.424 124.88 151.424 124.88L151.737 123.114C151.737 123.114 155.36 124.253 157.146 124.005L156.833 125.771Z" fill="#0F265C"/>
<path d="M113.533 73.3329C112.945 74.0258 112.201 74.1602 112.201 74.1602L111.699 73.3867C111.699 73.3867 112.444 73.2522 113.032 72.5594L113.533 73.3329Z" fill="#0F265C"/>
<path d="M163.256 74.2822C162.078 74.8158 161.05 74.5449 161.05 74.5449L160.892 73.2646C160.892 73.2646 161.919 73.5355 163.097 73.0019L163.256 74.2822Z" fill="#0F265C"/>
<path d="M70.7186 127.17C70.1455 127.431 69.6443 127.298 69.6443 127.298L69.566 126.676C69.566 126.676 70.0672 126.808 70.6403 126.548L70.7186 127.17Z" fill="#0F265C"/>
<path d="M87.7652 87.9104C86.4942 88.4689 85.3967 88.1648 85.3967 88.1648L85.2423 86.7894C85.2423 86.7894 86.342 87.0935 87.6108 86.535L87.7652 87.9104Z" fill="#0F265C"/>
<path d="M109.153 134.626C108.709 135.943 107.722 136.545 107.722 136.545L106.556 135.714C106.556 135.714 107.546 135.114 107.988 133.794L109.153 134.626Z" fill="#0F265C"/>
<path d="M126.155 119.768C127.175 119.573 128.515 118.037 128.475 117.404C128.42 117.511 126.803 117.22 126.862 117.139C126.724 117.718 125.121 118.678 124.161 118.516C124.201 118.537 124.961 119.209 125.06 119.236C125.119 119.311 126.041 119.819 126.153 119.768H126.155Z" fill="#0F265C"/>
<path d="M96.5179 56.6398C98.4782 55.6884 103.537 52.6874 105.247 51.3306C105.351 51.2499 105.567 50.797 105.59 50.7535C105.859 50.2923 106.121 49.8311 106.383 49.3698C106.645 48.9086 106.905 48.4474 107.161 47.9882C107.168 47.9758 107.4 47.4732 107.47 47.4195C105.759 48.7763 100.358 50.6625 98.3979 51.6139C98.1674 51.7256 97.6979 54.5261 97.6048 54.6894C97.5224 54.8363 96.6849 56.5592 96.5179 56.6398Z" fill="#0F265C"/>
<path d="M101.819 99.6164C102.206 99.5151 102.504 99.6516 102.504 99.6516L102.483 100.049C102.483 100.049 102.185 99.9122 101.798 100.014L101.819 99.6164Z" fill="#0F265C"/>
<path d="M122.766 116.097C122.893 115.824 123.121 115.716 123.121 115.716L123.351 115.923C123.351 115.923 123.123 116.028 122.996 116.304L122.766 116.097Z" fill="#0F265C"/>
<path d="M189.819 92.6221C189.891 92.0657 189.66 91.5259 189.482 91.0068C189.233 90.2767 188.668 89.8237 187.972 89.5093C187.15 89.1371 186.422 89.1991 185.784 89.8341C185.221 90.3946 184.779 91.226 183.853 91.1598C183.891 91.2736 183.929 91.3894 183.969 91.5032C183.887 91.2467 183.802 90.9923 183.72 90.7358C183.694 90.6614 183.614 90.4277 183.608 90.409C183.663 90.6035 183.728 90.7958 183.79 90.9882C183.872 91.2446 183.957 91.499 184.039 91.7555C184.045 91.7782 184.128 92.0968 184.155 92.0988C185.441 92.1898 185.809 90.591 186.907 90.2374C187.533 90.0368 188.3 90.4173 188.816 90.7338C189.078 90.893 189.296 91.1081 189.484 91.346C189.666 91.5756 189.639 91.8692 189.525 91.2343C189.552 91.3832 189.533 91.5321 189.514 91.681C189.476 91.9809 189.855 92.3284 189.816 92.6221H189.819Z" fill="#0F265C"/>
<path d="M139.781 96.1066C140.03 96.6775 139.506 97.1677 139.129 97.5379C138.704 97.9557 138.37 98.3631 138.531 98.9112C138.444 98.7375 138.355 98.6072 138.243 98.3859C137.97 97.8378 138.228 97.3497 138.617 96.9381C138.987 96.5472 139.675 96.0239 139.404 95.4096C139.482 95.5854 139.677 95.8812 139.776 96.1087L139.781 96.1066Z" fill="#0F265C"/>
<path d="M141.495 99.5769C141.729 99.8355 141.778 100.113 141.628 100.431C141.459 100.791 141.332 101.095 141.562 101.465C141.421 101.238 141.14 101.093 140.996 100.863C140.815 100.572 140.838 100.27 140.988 99.972C141.144 99.6617 141.237 99.3867 141.02 99.0785C141.032 99.093 141.045 99.1074 141.058 99.1219C141.039 99.1012 141.022 99.0826 141.003 99.0619C140.899 98.9503 141.093 99.1509 141.108 99.1654C141.237 99.3019 141.368 99.4384 141.493 99.5769H141.495Z" fill="#0F265C"/>
<path d="M148.755 99.6545C148.07 98.8768 148.06 98.0351 148.06 98.0351L149.043 97.6317C149.043 97.6317 149.056 98.4735 149.739 99.2512L148.755 99.6545Z" fill="#FFDD00"/>
<path d="M126.762 91.959C125.107 91.8804 124.108 90.9786 124.108 90.9786L124.705 89.4378C124.705 89.4378 125.703 90.3395 127.359 90.4181L126.762 91.959Z" fill="#FFDD00"/>
<path d="M153.158 79.7109C152.293 81.2663 150.91 81.7999 150.91 81.7999L149.643 80.4948C149.643 80.4948 151.027 79.9633 151.891 78.4059L153.158 79.7109Z" fill="#FFDD00"/>
<path d="M125.718 109.267C124.701 109.745 123.804 109.52 123.804 109.52L123.65 108.409C123.65 108.409 124.546 108.632 125.563 108.157L125.718 109.267Z" fill="#FFDD00"/>
<path d="M71.0061 107.69C70.4838 106.942 70.5578 106.201 70.5578 106.201L71.4608 105.941C71.4608 105.941 71.3868 106.681 71.9091 107.43L71.0061 107.69Z" fill="#FFDD00"/>
<path d="M147.389 65.5885C146.3 66.0373 145.374 65.7561 145.374 65.7561L145.273 64.5875C145.273 64.5875 146.199 64.8667 147.288 64.42L147.389 65.5885Z" fill="#FFDD00"/>
<path d="M126.798 56.7204C126.242 57.0844 124.415 57.345 124.415 57.345L124.339 57.0782C124.339 57.0782 126.13 56.6977 126.686 56.3336L126.798 56.7183V56.7204Z" fill="#FFDD00"/>
<path d="M140.098 60.0588L139.608 61.2684L141.444 61.9796L141.934 60.77L140.098 60.0588Z" fill="#FFDD00"/>
<path d="M141.513 61.842C140.362 61.7696 139.677 61.1305 139.677 61.1305L140.108 60.0653C140.108 60.0653 140.793 60.7044 141.944 60.7768L141.513 61.842Z" fill="#FFDD00"/>
<path d="M92.6311 70.5407C91.8571 72.0464 90.5587 72.5945 90.5587 72.5945L89.3131 71.3928C89.3131 71.3928 90.6115 70.8448 91.3855 69.3391L92.6311 70.5407Z" fill="#FFDD00"/>
<path d="M108.054 124.458C110.05 123.713 111.784 122.545 113.205 120.983C113.29 120.89 113.296 120.205 113.302 120.143C113.37 119.467 113.433 118.789 113.497 118.112C113.558 117.434 113.619 116.758 113.672 116.079C113.672 116.061 113.672 115.297 113.727 115.235C112.308 116.795 110.572 117.966 108.576 118.71C108.341 118.797 108.307 121.343 108.284 121.581C108.265 121.796 108.221 124.394 108.051 124.458H108.054Z" fill="#FFDD00"/>
<path d="M144.94 41.0743C144.957 40.793 144.928 40.5138 144.892 40.2532C144.888 40.2263 144.885 40.2015 144.881 40.1767C144.862 40.3173 144.82 40.458 144.763 40.5924C144.767 40.5966 144.773 40.6028 144.778 40.6069C144.771 40.6296 144.763 40.6524 144.754 40.6752C144.625 41.0288 144.367 41.2832 144.111 41.4549C143.534 41.8437 142.874 41.9203 142.299 41.9471C141.684 41.9761 141.085 41.914 140.474 41.9244C140.17 41.9306 139.861 41.9554 139.55 42.0175C139.252 42.0754 138.945 42.185 138.666 42.427C138.408 42.6524 138.201 43.0226 138.159 43.3949C138.127 43.6617 138.159 43.9306 138.188 44.1767C138.194 44.2326 138.201 44.2884 138.209 44.3422C138.211 44.3132 138.216 44.2843 138.218 44.2553C138.23 44.1374 138.268 44.0216 138.326 43.9223C138.351 43.8562 138.381 43.7941 138.412 43.7321C138.603 43.3701 138.903 43.1529 139.195 43.0268C139.499 42.8965 139.812 42.8572 140.11 42.8303C140.419 42.8013 140.726 42.8013 141.028 42.8096C141.633 42.8241 142.234 42.8696 142.853 42.7889C143.409 42.7165 144.107 42.5594 144.591 41.9761C144.794 41.732 144.919 41.3949 144.938 41.0764L144.94 41.0743Z" fill="#FFDD00"/>
<path d="M140.851 47.1431C140.84 46.959 140.823 46.7832 140.793 46.6177C140.789 46.6343 140.785 46.6488 140.781 46.6653C140.777 46.7729 140.757 46.8825 140.713 46.9921C140.713 46.9942 140.715 46.9962 140.717 46.9983C140.538 47.6271 139.865 47.7925 139.478 47.9869C139.245 48.1028 139.015 48.2724 138.858 48.5578C138.685 48.8742 138.67 49.2527 138.628 49.5961C138.624 49.6395 138.605 49.7491 138.605 49.8174C138.611 50.1483 138.685 50.6405 138.708 50.533C138.888 49.7243 139.081 49.17 139.186 49.1121C139.37 48.9425 139.592 48.8453 139.787 48.7605C140.058 48.6446 140.335 48.5268 140.574 48.2662C140.863 47.9456 140.876 47.5257 140.851 47.141V47.1431Z" fill="#FFDD00"/>
<path d="M120.852 44.9839C121.767 48.4461 124.946 50.6096 127.875 49.7616C138.486 47.9601 148.527 45.4058 157.341 41.2279C159.659 40.5557 160.925 37.8442 160.202 35.1016C159.477 32.3612 157.024 30.5825 154.662 31.0851C145.264 32.295 135.09 34.8721 124.633 37.4905C121.649 38.1275 119.936 41.5195 120.852 44.9818V44.9839Z" fill="#F4F5F5" stroke="#17294D" stroke-width="0.5" stroke-linecap="round" stroke-linejoin="round"/>
<path d="M153.461 35.1322C152.397 37.6906 153.296 40.4414 155.448 41.2129C160.541 45.2047 168.416 47.3495 177.101 48.9565C178.805 49.5666 180.829 48.4415 181.671 46.4167C182.512 44.3918 181.869 42.1995 180.218 41.4673C172.7 37.095 165.485 33.4589 159.219 32.1518C157.132 31.2252 154.524 32.5758 153.461 35.1342V35.1322Z" fill="#F4F5F5" stroke="#17294D" stroke-width="0.5" stroke-linecap="round" stroke-linejoin="round"/>
<path d="M160.389 37.7341C161.251 35.0812 159.747 32.2454 157.029 31.4001C154.311 30.5548 151.409 32.0201 150.546 34.673C149.684 37.3258 151.188 40.1616 153.906 41.0069C156.624 41.8522 159.526 40.3869 160.389 37.7341Z" fill="#F4F5F5"/>
<path d="M151.16 31.3785L154.087 46.4999L126.814 51.5497C122.548 52.3396 118.427 49.5937 117.619 45.4196C116.811 41.2475 119.619 37.2165 123.886 36.4263L151.16 31.3765L151.16 31.3785Z" fill="#FFDD00"/>
<path d="M146.526 48.1068C148.542 51.0913 148.053 54.8494 145.446 56.4088C136.968 62.9053 128.3 68.4834 119.223 72.0822C117.16 73.3149 114.252 72.4173 112.657 70.0553C111.063 67.6933 111.357 64.7192 113.323 63.3417C120.539 57.3313 129.311 51.6704 138.309 45.8338C140.791 44.0943 144.513 45.1243 146.529 48.1089L146.526 48.1068Z" fill="#F4F5F5" stroke="#17294D" stroke-width="0.5" stroke-linecap="round" stroke-linejoin="round"/>
<path d="M121.37 69.4261C122.55 66.8866 121.406 63.8943 118.815 62.7425C116.223 61.5908 113.166 62.7158 111.986 65.2553C110.806 67.7948 111.95 70.7871 114.541 71.9388C117.133 73.0906 120.19 71.9656 121.37 69.4261Z" fill="#F4F5F5"/>
<path d="M149.009 46.0679C151.634 49.4501 150.958 54.2826 147.498 56.8511L125.389 73.2648L115.875 61.0062L137.985 44.5924C141.443 42.0252 146.384 42.6857 149.01 46.0695L149.009 46.0679Z" fill="#F4F5F5"/>
<path d="M120.839 69.5362C119.562 71.9995 116.61 73.0213 114.317 71.7948C107.113 70.2642 99.2733 65.35 91.248 59.4513C89.4336 58.4792 88.7929 56.1586 89.8037 54.2082C90.8145 52.2579 93.109 51.385 94.9868 52.2372C104.378 55.4575 112.932 58.9053 118.841 63.0667C121.211 64.1422 122.116 67.0708 120.839 69.5341V69.5362Z" fill="#F4F5F5" stroke="#17294D" stroke-width="0.5" stroke-linecap="round" stroke-linejoin="round"/>
<path d="M89.8883 47.7879C91.2904 51.0909 90.085 54.6918 87.2238 55.7404C77.6442 60.5533 68.0561 64.4313 58.4469 66.2886C56.1821 67.118 53.5006 65.6991 52.3904 63.0848C51.2802 60.4705 52.143 57.6039 54.3402 56.6153C62.5875 52.0444 72.294 48.1085 82.2563 44.0381C85.0308 42.7889 88.4863 44.4869 89.8883 47.7899V47.7879Z" fill="#F4F5F5" stroke="#17294D" stroke-width="0.5" stroke-linecap="round" stroke-linejoin="round"/>
<path d="M60.9296 62.7062C59.9695 65.304 57.1675 66.6711 54.7377 65.728C47.3955 65.0682 39.0001 61.1281 30.3002 56.2325C28.3779 55.4859 27.4538 53.2583 28.213 51.2025C28.9722 49.1466 31.1419 48.007 33.1106 48.6275C42.8341 50.7019 51.7539 53.1032 58.1382 56.5262C60.625 57.3121 61.8896 60.1085 60.9296 62.7062Z" fill="#F4F5F5" stroke="#17294D" stroke-width="0.5" stroke-linecap="round" stroke-linejoin="round"/>
<path d="M61.0744 64.0875C62.7237 61.8118 62.1783 58.662 59.8563 57.0522C57.5342 55.4424 54.3148 55.9822 52.6655 58.258C51.0162 60.5337 51.5616 63.6835 53.8836 65.2933C56.2057 66.9031 59.4251 66.3632 61.0744 64.0875Z" fill="#F4F5F5"/>
<path d="M122.161 98.1711C122.161 105.832 112.456 114.67 100.485 114.67C88.5138 114.67 78.8094 105.938 78.8094 98.2746C78.8094 90.6116 88.5138 86.9239 100.485 86.9239C112.456 86.9239 122.161 90.5082 122.161 98.1691V98.1711Z" fill="#0F265C"/>
<path d="M93.5785 31.5586C93.1132 31.3621 92.5845 31.2049 92.0622 30.9547C88.5349 29.2711 86.8791 24.572 89.0001 21.2979C89.3491 20.7581 90.6348 19.4881 90.6221 18.8511C90.6137 18.3899 89.8333 17.5584 89.6409 17.12C88.6702 14.9069 89.9877 12.1809 92.1489 11.2109C93.2126 10.7331 94.5132 10.6359 94.8663 9.37428C95.1877 8.22639 94.8621 6.98543 95.4923 5.91613C96.2261 4.6731 97.7296 4.31322 98.9498 5.11364C100.802 6.32772 102.699 5.33081 104.533 4.6338C107.766 3.40731 112.205 3.80442 114.736 6.30703C115.396 6.95854 115.614 7.98647 116.29 8.59661C116.921 9.16332 117.318 8.60902 118.037 8.64832C119.748 8.74139 121.188 10.4974 121.702 11.9472C122.241 13.4653 122.222 14.9131 121.708 16.4416C122.852 16.4126 124.03 17.5998 124.557 18.4871C125.764 20.5202 125.931 23.331 125.572 25.6102C125.236 27.7364 124.045 29.5482 122.398 30.9547C121.844 31.4283 121.222 31.6744 120.609 32.0219C119.61 32.5886 120.084 33.9061 119.682 34.812C119.16 35.9888 118.058 36.994 116.821 37.3973C116.113 37.629 115.003 37.3125 114.436 37.5897C114.03 37.7882 113.592 38.5142 113.156 38.8017C112.499 39.236 111.807 39.4904 111.044 39.6807C109.05 40.1771 106.525 40.0737 104.48 39.8875C102.333 39.691 100.246 39.0706 98.3535 38.0612C97.7465 37.7386 97.184 37.3394 96.6934 36.8637C95.5599 35.7717 95.3167 34.6465 95.0249 33.1843C94.8367 32.2453 94.2742 31.8544 93.5721 31.5565L93.5785 31.5586Z" fill="#0F265C" stroke="#1B294A" stroke-width="0.5" stroke-linecap="round" stroke-linejoin="round"/>
<path d="M129.503 41.6393C130.07 46.0261 129.865 58.7067 108.65 62.1256C108.299 62.1814 107.939 62.2373 107.576 62.2869C107.21 62.3262 106.85 62.3614 106.495 62.3903C85.0752 64.2373 81.6537 52.0035 81.089 47.6166C80.5202 43.2133 91.0599 37.6 103.074 35.8813C103.416 35.8316 103.763 35.7861 104.108 35.7427L104.192 35.7323C104.537 35.6889 104.886 35.6496 105.23 35.6144C117.303 34.359 128.936 37.2339 129.505 41.6373L129.503 41.6393Z" fill="#FFDD00"/>
<path d="M113.042 30.6382C113.042 27.6877 110.597 25.2958 107.581 25.2958C104.565 25.2958 102.12 27.6877 102.12 30.6382V39.0085C102.12 41.959 104.565 44.3508 107.581 44.3508C110.597 44.3508 113.042 41.959 113.042 39.0085V30.6382Z" fill="#F4F5F5" stroke="#17294D" stroke-width="0.5" stroke-linecap="round" stroke-linejoin="round"/>
<path d="M99.8909 26.9256C97.8121 26.9256 95.7693 25.0725 94.7754 21.8914C93.902 19.0931 96.5961 15.879 99.4721 20.6339C100.779 22.7953 101.97 26.9256 99.8909 26.9256Z" fill="#F4F5F5" stroke="#17294D" stroke-width="0.5" stroke-linecap="round" stroke-linejoin="round"/>
<path d="M115.419 26.9256C117.498 26.9256 119.541 25.0725 120.535 21.8914C121.408 19.0931 118.714 15.879 115.838 20.6339C114.531 22.7953 113.34 26.9256 115.419 26.9256Z" fill="#F4F5F5" stroke="#17294D" stroke-width="0.5" stroke-linecap="round" stroke-linejoin="round"/>
<path d="M117.574 26.9256C117.574 31.6744 113.941 35.5255 108.912 35.5255H106.248C101.219 35.5255 97.5858 31.6744 97.5858 26.9256L97.1417 16.8573C97.1417 12.1085 101.219 8.25739 106.248 8.25739H108.912C113.941 8.25739 118.018 12.1085 118.018 16.8573L117.574 26.9256Z" fill="#F4F5F5" stroke="#17294D" stroke-width="0.5" stroke-linecap="round" stroke-linejoin="round"/>
<path d="M92.709 46.2488C94.6333 50.0551 93.0367 54.6758 89.143 56.5587L64.2609 68.5916L57.2865 54.7958L82.1686 42.763C86.0604 40.881 90.7848 42.4425 92.71 46.2507L92.709 46.2488Z" fill="#FFDD00"/>
<path d="M117.303 42.8451L114.709 45.1761V50.6198L108.69 48.0634" stroke="#17294D" stroke-width="0.5" stroke-linecap="round" stroke-linejoin="round"/>
<path d="M97.8121 42.8451L100.409 45.1761V50.6198L106.427 48.0634" stroke="#17294D" stroke-width="0.5" stroke-linecap="round" stroke-linejoin="round"/>
<path d="M127.877 49.762L81.6938 57.2781L78.5323 95.9445L121.122 96.1782L127.877 49.762Z" fill="#FFDD00"/>
<path d="M102.124 105.889L101.234 109.878C100.424 113.512 93.107 115.924 90.7068 115.614C82.1232 114.505 73.658 110.834 60.2233 106.846C57.9289 106.166 56.7637 102.825 57.5672 99.2267C58.172 96.5152 59.7412 94.358 61.5048 93.5761C62.0229 93.3466 62.5579 93.2349 63.0929 93.2638C65.1379 93.3735 67.0559 93.45 68.8661 93.51C79.6743 93.8678 86.6846 93.6341 93.9993 96.509C96.15 97.3549 102.896 102.428 102.126 105.887L102.124 105.889Z" fill="#0F265C"/>
<path d="M101.234 109.878C100.424 113.512 93.107 115.924 90.7068 115.614C82.1232 114.505 73.658 110.834 60.2233 106.846C57.9289 106.166 56.7637 102.825 57.5672 99.2267C58.172 96.5152 59.7412 94.358 61.5048 93.5761C62.0229 93.3466 62.5579 93.2349 63.0929 93.2638C65.1379 93.3735 67.0559 93.45 68.8661 93.51L80.1184 106.921C80.1184 106.921 95.08 113.583 101.234 109.876V109.878Z" fill="#081B3F"/>
<path d="M76.6207 110.349C79.467 122.113 81.4126 134.943 82.7427 148.504C83.0071 151.197 81.2709 153.63 78.6592 154.207C77.3375 154.498 75.9989 154.271 74.8697 153.646C73.7383 153.026 72.8163 152.008 72.3257 150.72C67.4344 137.867 63.26 125.497 60.3311 113.948C59.3076 109.923 58.4342 105.997 57.7364 102.185C56.956 97.9435 59.5973 93.9186 63.7485 93.0003C67.8679 92.0902 72.0677 94.5598 73.3661 98.6508C74.5652 102.417 75.6437 106.32 76.6207 110.347V110.349Z" fill="#0F265C"/>
<path d="M67.2609 151.264C67.2609 151.264 68.9781 146.341 72.1142 146.428C75.2503 146.515 75.7134 150.224 75.7134 150.224C75.7134 150.224 81.2285 152.118 81.8883 146.197C81.8883 146.197 85.8936 150.654 86.215 153.512C86.215 153.512 82.1907 157.055 80.3108 156.478C80.3108 156.478 76.5762 159.976 74.6878 161.144C72.7993 162.315 62.3569 165.705 60.7815 162.464C59.206 159.223 64.2031 158.871 67.2609 151.264Z" fill="#F4F5F5" stroke="#17294D" stroke-width="0.5" stroke-linecap="round" stroke-linejoin="round"/>
<path d="M75.7195 152.983C75.7195 152.983 71.2744 158.482 70.1135 158.664C68.9546 158.846 64.2917 157.597 60.7051 160.197" fill="#F4F5F5"/>
<path d="M75.7195 152.983C75.7195 152.983 71.2744 158.482 70.1135 158.664C68.9546 158.846 64.2917 157.597 60.7051 160.197" stroke="#17294D" stroke-width="0.5" stroke-linecap="round" stroke-linejoin="round"/>
<path d="M38.2515 49.7466L32.1315 48.3402C32.1315 48.3402 33.8614 45.1592 31.4802 43.4115C29.2428 41.7693 22.9199 39.8685 22.9199 39.8685C22.2432 39.5976 20.5049 41.2729 21.0399 41.7755C19.0077 42.1395 18.8089 43.2791 19.4179 44.7641C18.2633 45.2874 18.1195 46.0754 18.866 47.093C17.7029 47.7073 17.5549 48.6897 18.0201 49.8955C18.0201 49.8955 19.769 53.4385 23.0785 53.9287C27.31 54.5553 33.8085 58.181 33.8085 58.181" fill="#F4F5F5"/>
<path d="M38.2515 49.7466L32.1315 48.3402C32.1315 48.3402 33.8614 45.1592 31.4802 43.4115C29.2428 41.7693 22.9199 39.8685 22.9199 39.8685C22.2432 39.5976 20.5049 41.2729 21.0399 41.7755C19.0077 42.1395 18.8089 43.2791 19.4179 44.7641C18.2633 45.2874 18.1195 46.0754 18.866 47.093C17.7029 47.7073 17.5549 48.6897 18.0201 49.8955C18.0201 49.8955 19.769 53.4385 23.0785 53.9287C27.31 54.5553 33.8085 58.181 33.8085 58.181" stroke="#17294D" stroke-width="0.5" stroke-linecap="round" stroke-linejoin="round"/>
<path d="M31.0382 46.4539C31.0382 46.4539 27.8746 49.6825 26.094 48.1685C24.3113 46.6546 28.0776 41.7962 29.0504 42.0919" fill="#F4F5F5"/>
<path d="M31.0382 46.4539C31.0382 46.4539 27.8746 49.6825 26.094 48.1685C24.3113 46.6546 28.0776 41.7962 29.0504 42.0919" stroke="#17294D" stroke-width="0.5" stroke-linecap="round" stroke-linejoin="round"/>
<path d="M21.0377 41.776C21.0377 41.776 22.351 43.6871 26.168 44.8867Z" fill="#F4F5F5"/>
<path d="M21.0377 41.776C21.0377 41.776 22.351 43.6871 26.168 44.8867" stroke="#17294D" stroke-width="0.5" stroke-linecap="round" stroke-linejoin="round"/>
<path d="M19.4158 44.7645C19.4158 44.7645 23.4527 47.2836 25.7155 47.6228Z" fill="#F4F5F5"/>
<path d="M19.4158 44.7645C19.4158 44.7645 23.4527 47.2836 25.7155 47.6228" stroke="#17294D" stroke-width="0.5" stroke-linecap="round" stroke-linejoin="round"/>
<path d="M18.8638 47.0934C18.8638 47.0934 21.2513 49.3395 24.1379 49.9848C27.0245 50.6322 27.0625 49.6291 27.1069 48.5639" fill="#F4F5F5"/>
<path d="M18.8638 47.0934C18.8638 47.0934 21.2513 49.3395 24.1379 49.9848C27.0245 50.6322 27.0625 49.6291 27.1069 48.5639" stroke="#17294D" stroke-width="0.5" stroke-linecap="round" stroke-linejoin="round"/>
<path d="M18.718 50.7973C18.718 50.7973 21.4671 52.4602 23.622 52.7994C25.7768 53.1386 27.1958 50.9689 24.673 50.3567" fill="#F4F5F5"/>
<path d="M18.718 50.7973C18.718 50.7973 21.4671 52.4602 23.622 52.7994C25.7768 53.1386 27.1958 50.9689 24.673 50.3567" stroke="#17294D" stroke-width="0.5" stroke-linecap="round" stroke-linejoin="round"/>
<path d="M174.73 104.291C174.73 111.952 165.026 120.79 153.054 120.79C141.083 120.79 131.379 112.058 131.379 104.395C131.379 96.7319 141.083 93.0442 153.054 93.0442C165.026 93.0442 174.73 96.6285 174.73 104.289V104.291Z" fill="#72787A"/>
<path d="M182.98 55.3743C182.436 59.7632 179.08 72.0135 157.654 70.2762C157.299 70.2472 156.937 70.2141 156.571 70.1769C156.207 70.1273 155.848 70.0756 155.497 70.0197C134.261 66.7084 133.99 54.0278 134.534 49.639C135.079 45.2315 146.7 42.2986 158.779 43.4941C159.124 43.5272 159.473 43.5665 159.817 43.6058L159.902 43.6161C160.247 43.6575 160.595 43.7009 160.938 43.7485C172.96 45.4073 183.527 50.9668 182.982 55.3743H182.98Z" fill="#F4F5F5"/>
<path d="M164.867 41.207C164.867 38.2565 162.422 35.8647 159.406 35.8647C156.39 35.8647 153.945 38.2565 153.945 41.207V49.5773C153.945 52.5278 156.39 54.9197 159.406 54.9197C162.422 54.9197 164.867 52.5278 164.867 49.5773V41.207Z" fill="#F4F5F5" stroke="#17294D" stroke-width="0.5" stroke-linecap="round" stroke-linejoin="round"/>
<path d="M152.029 37.4942C149.187 37.4942 146.393 35.641 145.036 32.46C143.841 29.6616 147.527 26.4475 151.458 31.2025C153.245 33.3638 154.873 37.4942 152.029 37.4942Z" fill="#F4F5F5" stroke="#17294D" stroke-width="0.5" stroke-linecap="round" stroke-linejoin="round"/>
<path d="M166.796 37.4303C169.638 37.4303 172.432 35.5772 173.789 32.3961C174.984 29.5978 171.298 26.3837 167.367 31.1386C165.58 33.3 163.952 37.4303 166.796 37.4303Z" fill="#F4F5F5" stroke="#17294D" stroke-width="0.5" stroke-linecap="round" stroke-linejoin="round"/>
<path d="M159.523 36.7251C166.72 36.7251 172.554 31.608 172.554 25.2958C172.554 18.9836 166.72 13.8665 159.523 13.8665C152.327 13.8665 146.493 18.9836 146.493 25.2958C146.493 31.608 152.327 36.7251 159.523 36.7251Z" fill="#0F265C"/>
<path d="M168.636 37.4945C168.636 42.2432 165.28 46.0944 160.636 46.0944H158.174C153.53 46.0944 150.174 42.2432 150.174 37.4945L149.764 27.4261C149.764 22.6774 153.53 18.8262 158.174 18.8262H160.636C165.28 18.8262 169.046 22.6774 169.046 27.4261L168.636 37.4945Z" fill="#F4F5F5" stroke="#17294D" stroke-width="0.5" stroke-linecap="round" stroke-linejoin="round"/>
<path d="M182.017 58.6939L134.088 52.6835L132.675 104.876L175.265 105.11L182.017 58.6939Z" fill="#F4F5F5"/>
<path d="M149.637 110.525L150.527 114.515C151.337 118.149 158.654 120.561 161.054 120.25C169.638 119.142 178.103 115.47 191.538 111.483C193.832 110.802 194.998 107.462 194.194 103.863C193.589 101.152 192.02 98.9946 190.256 98.2128C189.738 97.9832 189.203 97.8715 188.668 97.9005C186.623 98.0101 184.705 98.0866 182.895 98.1466C172.087 98.5044 165.077 98.2707 157.762 101.146C155.611 101.992 148.865 107.065 149.635 110.523L149.637 110.525Z" fill="#72787A"/>
<path d="M150.528 114.517C151.337 118.151 158.654 120.563 161.054 120.252C169.638 119.144 178.103 115.473 191.538 111.485C193.832 110.804 194.998 107.464 194.194 103.865C193.589 101.154 192.02 98.9967 190.256 98.2149C189.738 97.9853 189.203 97.8736 188.668 97.9026C186.623 98.0122 184.705 98.0887 182.895 98.1487L171.643 111.559C171.643 111.559 156.681 118.221 150.528 114.515V114.517Z" fill="#4F5151"/>
<path d="M116.297 107.487L116.286 107.557C115.707 111.195 116.616 114.387 118.363 114.836C128.589 117.466 135.041 120.271 141.563 120.527C142.984 120.583 146.641 118.722 148.476 116.163C149.003 115.429 149.377 114.639 149.51 113.82L150.153 109.787C150.709 106.289 145.552 101.932 143.913 101.305C138.949 99.4083 134.189 99.9253 127.416 100.56C125.305 100.757 123 100.966 120.433 101.115C118.659 101.218 116.876 103.975 116.297 107.487Z" fill="#72787A"/>
<path d="M175.141 114.989C172.294 126.753 170.349 139.583 169.018 153.144C168.754 155.837 170.49 158.27 173.102 158.847C174.424 159.138 175.762 158.911 176.892 158.286C178.023 157.666 178.945 156.648 179.436 155.36C184.327 142.507 188.501 130.137 191.43 118.588C192.454 114.563 193.327 110.637 194.025 106.826C194.805 102.583 192.164 98.5586 188.013 97.6403C183.893 96.7302 179.693 99.1998 178.395 103.291C177.196 107.057 176.118 110.96 175.141 114.987V114.989Z" fill="#72787A"/>
<path d="M116.297 107.487L116.286 107.558C115.707 111.196 116.616 114.387 118.363 114.836C128.589 117.467 135.041 120.271 141.563 120.528C142.984 120.584 146.641 118.722 148.476 116.164L145.966 115.463C145.966 115.463 132.599 115.372 130.687 114.155C129.344 113.301 130.017 105.719 127.416 100.561C125.305 100.757 123 100.966 120.433 101.115C118.659 101.218 116.876 103.975 116.297 107.487Z" fill="#4F5151"/>
<path d="M132.275 117.119C131.939 126.716 130.455 136.933 128.181 147.576C127.731 149.69 125.413 151.179 122.74 151.063C121.387 151.006 120.154 150.544 119.226 149.827C118.295 149.111 117.671 148.137 117.536 147.049C116.18 136.186 115.394 125.843 115.593 116.395C115.658 113.102 115.846 109.915 116.172 106.856C116.531 103.45 120.139 100.937 124.39 101.121C128.611 101.303 132.02 104.087 132.201 107.489C132.371 110.622 132.39 113.835 132.278 117.121L132.275 117.119Z" fill="#72787A"/>
<path d="M184.502 155.901C184.502 155.901 182.785 150.978 179.649 151.065C176.513 151.152 176.05 154.86 176.05 154.86C176.05 154.86 170.535 156.755 169.875 150.834C169.875 150.834 165.87 155.291 165.548 158.149C165.548 158.149 169.572 161.692 171.452 161.115C171.452 161.115 175.187 164.612 177.075 165.781C178.964 166.95 189.406 170.342 190.982 167.101C192.557 163.86 187.56 163.508 184.502 155.901Z" fill="#F4F5F5" stroke="#17294D" stroke-width="0.5" stroke-linecap="round" stroke-linejoin="round"/>
<path d="M176.043 157.622C176.043 157.622 180.489 163.121 181.649 163.303C182.81 163.485 187.471 162.236 191.058 164.836" fill="#F4F5F5"/>
<path d="M176.043 157.622C176.043 157.622 180.489 163.121 181.649 163.303C182.81 163.485 187.471 162.236 191.058 164.836" stroke="#17294D" stroke-width="0.5" stroke-linecap="round" stroke-linejoin="round"/>
<path d="M118.175 146.501C118.175 146.501 121.33 141.876 117.802 140.59C114.275 139.301 110.845 142.859 110.845 142.859C110.845 142.859 100.821 148.302 99.8295 148.879C98.8377 149.454 97.2009 152.124 99.102 153.301C101.003 154.478 109.278 157.831 113.247 155.531C117.217 153.229 119.517 151.982 120.924 151.618C122.33 151.254 127.367 148.828 127.748 147.425C128.128 146.021 128.302 142.244 128.302 142.244C128.302 142.244 119.45 148.751 118.175 146.503V146.501Z" fill="#F4F5F5" stroke="#17294D" stroke-width="0.5" stroke-linecap="round" stroke-linejoin="round"/>
<path d="M118.175 146.501C118.175 146.501 110.414 152.741 106.768 152.166C103.122 151.591 99.7153 150.47 99.8295 148.877" fill="#F4F5F5"/>
<path d="M118.175 146.501C118.175 146.501 110.414 152.741 106.768 152.166C103.122 151.591 99.7153 150.47 99.8295 148.877" stroke="#17294D" stroke-width="0.5" stroke-linecap="round" stroke-linejoin="round"/>
<path d="M171.791 54.8287C169.775 57.8132 170.264 61.5713 172.871 63.1308C181.349 69.6272 190.017 75.2053 199.094 78.8041C201.158 80.0368 204.065 79.1392 205.66 76.7772C207.254 74.4153 206.96 71.4411 204.994 70.0636C197.778 64.0532 189.007 58.3923 180.008 52.5557C177.526 50.8163 173.804 51.8463 171.789 54.8308L171.791 54.8287Z" fill="#F4F5F5" stroke="#17294D" stroke-width="0.5" stroke-linecap="round" stroke-linejoin="round"/>
<path d="M203.778 78.6501C206.369 77.4984 207.513 74.506 206.333 71.9666C205.153 69.4271 202.096 68.3021 199.505 69.4538C196.913 70.6055 195.769 73.5979 196.949 76.1374C198.129 78.6769 201.187 79.8019 203.778 78.6501Z" fill="#F4F5F5"/>
<path d="M202.44 67.732L192.927 79.9907L170.817 63.5769C167.359 61.0097 166.681 56.1776 169.307 52.7937C171.932 49.4115 176.872 48.7481 180.332 51.3166L202.442 67.7304L202.44 67.732Z" fill="#F4F5F5"/>
<path d="M206.751 74.9944C207.199 72.2684 205.425 69.743 202.832 69.4162C196.084 66.5103 186.788 65.9767 176.752 66.1318C174.701 65.8733 172.787 67.3831 172.432 69.5424C172.076 71.6996 173.408 73.7265 175.439 74.1153C184.972 76.9116 193.963 79.042 201.242 79.0751C203.807 79.5673 206.298 77.7203 206.747 74.9944H206.751Z" fill="#F4F5F5" stroke="#17294D" stroke-width="0.5" stroke-linecap="round" stroke-linejoin="round"/>
<path d="M135.464 101.249L135.475 101.319C136.054 104.957 135.145 108.149 133.398 108.598C123.172 111.228 116.72 114.033 110.198 114.289C108.777 114.345 105.12 112.484 103.285 109.925C102.758 109.191 102.384 108.401 102.251 107.582L101.608 103.549C101.052 100.051 106.21 95.6936 107.848 95.0669C112.812 93.1703 117.572 93.6874 124.345 94.3224C126.456 94.5189 128.761 94.7278 131.328 94.8767C133.102 94.9801 134.885 97.7371 135.464 101.249Z" fill="#0F265C"/>
<path d="M167.031 45.153L172.802 46.4808L171.905 46.7724C169.19 47.2109 170.088 49.0889 172.398 49.4508L175.485 50.1375C174.834 51.941 173.736 53.4054 171.723 54.1706C170.285 55.2461 170.793 56.3072 171.833 56.2555C170.913 56.6236 171.002 58.6712 171.922 58.303C170.607 59.0476 172.41 60.6981 173.726 59.9535C172.74 60.5678 173.785 62.1707 174.77 61.5564L180.744 58.4023C181.823 57.8336 182.635 56.8759 183.009 55.7343L184.162 52.2099C184.5 51.1758 184.458 50.0589 184.041 49.0537L181.373 42.6111L173.354 37.5583" fill="#F4F5F5"/>
<path d="M167.031 45.153L172.802 46.4808L171.905 46.7724C169.19 47.2109 170.088 49.0889 172.398 49.4508L175.485 50.1375C174.834 51.941 173.736 53.4054 171.723 54.1706C170.285 55.2461 170.793 56.3072 171.833 56.2555C170.913 56.6236 171.002 58.6712 171.922 58.303C170.607 59.0476 172.41 60.6981 173.726 59.9535C172.74 60.5678 173.785 62.1707 174.77 61.5564L180.744 58.4023C181.823 57.8336 182.635 56.8759 183.009 55.7343L184.162 52.2099C184.5 51.1758 184.458 50.0589 184.041 49.0537L181.373 42.6111L173.354 37.5583" stroke="#17294D" stroke-width="0.5" stroke-linecap="round" stroke-linejoin="round"/>
<path d="M174.952 46.4231C175.018 46.4211 173.413 46.1142 172.918 46.4729Z" fill="#F4F5F5"/>
<path d="M174.952 46.4231C175.018 46.4211 173.413 46.1142 172.918 46.4729" stroke="#17294D" stroke-width="0.5" stroke-linecap="round" stroke-linejoin="round"/>
<path d="M171.926 58.3055C171.926 58.3055 176.748 55.8194 176.841 55.8132C176.934 55.807 177.742 54.7791 177.742 54.7791" fill="#F4F5F5"/>
<path d="M171.926 58.3055C171.926 58.3055 176.748 55.8194 176.841 55.8132C176.934 55.807 177.742 54.7791 177.742 54.7791" stroke="#17294D" stroke-width="0.5" stroke-linecap="round" stroke-linejoin="round"/>
<path d="M171.837 56.2555C171.996 56.2369 175.589 54.5161 175.589 54.5161L176.638 52.4933" fill="#F4F5F5"/>
<path d="M171.837 56.2555C171.996 56.2369 175.589 54.5161 175.589 54.5161L176.638 52.4933" stroke="#17294D" stroke-width="0.5" stroke-linecap="round" stroke-linejoin="round"/>
<path d="M173.73 59.9555L178.08 57.6162L178.879 56.1643" fill="#F4F5F5"/>
<path d="M173.73 59.9555L178.08 57.6162L178.879 56.1643" stroke="#17294D" stroke-width="0.5" stroke-linecap="round" stroke-linejoin="round"/>
<path d="M116.828 23.7963H112.723V24.8325H116.828V23.7963Z" fill="#17294D"/>
<path d="M116.828 24.8159H112.723V25.8522H116.828V24.8159Z" fill="#B42940"/>
<path d="M116.827 22.7539H112.723V23.7901H116.827V22.7539Z" fill="#FFDD00"/>
<path d="M102.437 23.7963H98.3323V24.8325H102.437V23.7963Z" fill="#17294D"/>
<path d="M102.437 24.8159H98.3323V25.8522H102.437V24.8159Z" fill="#B42940"/>
<path d="M102.437 22.7539H98.3323V23.7901H102.437V22.7539Z" fill="#FFDD00"/>
<path d="M167.627 35.6885H163.522V36.7247H167.627V35.6885Z" fill="#17294D"/>
<path d="M167.627 36.7084H163.522V37.7446H167.627V36.7084Z" fill="#B42940"/>
<path d="M167.627 34.6461H163.522V35.6823H167.627V34.6461Z" fill="#FFDD00"/>
<path d="M155.29 35.6885H151.185V36.7247H155.29V35.6885Z" fill="#17294D"/>
<path d="M155.29 36.7084H151.185V37.7446H155.29V36.7084Z" fill="#B42940"/>
<path d="M155.29 34.6461H151.185V35.6823H155.29V34.6461Z" fill="#FFDD00"/>
<path d="M161.128 66.2662C161.128 66.2662 161.205 68.7502 161.257 69.4824C161.31 70.2146 162.49 70.6427 163.249 69.6416L161.126 66.2642L161.128 66.2662Z" fill="#F4F5F5" stroke="#17294D" stroke-width="0.5" stroke-linecap="round" stroke-linejoin="round"/>
<path d="M170.843 71.7182C170.843 71.7182 167.98 72.1836 165.521 69.4597L166.54 68.7441C167.128 68.3304 167.944 68.4483 168.388 69.0067L170.843 71.7162V71.7182Z" fill="#F4F5F5" stroke="#17294D" stroke-width="0.5" stroke-linecap="round" stroke-linejoin="round"/>
<path d="M158.982 41.4327C158.982 41.4327 167.062 83.5511 167.318 86.7176C167.574 89.8841 164.201 95.0114 163.137 96.6701C168.416 91.7208 173.736 90.5915 179.112 93.9111C179.112 93.9111 173.326 89.9917 172.19 86.1778C171.055 82.3639 160.799 40.9922 160.799 40.9922L158.984 41.4348L158.982 41.4327Z" fill="#FFDD00" stroke="#17294D" stroke-width="0.5" stroke-linecap="round" stroke-linejoin="round"/>
<path d="M163.135 96.6695C163.135 96.6695 172.229 102.126 179.11 93.9104C179.11 93.9104 176.147 91.2403 170.829 92.0779C165.51 92.9156 163.137 96.6695 163.137 96.6695H163.135Z" fill="#FFDD00" stroke="#17294D" stroke-width="0.5" stroke-linecap="round" stroke-linejoin="round"/>
<path d="M161.205 39.4188L157.919 40.2823C157.281 40.4498 156.904 41.0904 157.075 41.7131C157.246 42.3358 157.901 42.7049 158.538 42.5374L161.824 41.6739C162.462 41.5064 162.839 40.8658 162.668 40.2431C162.497 39.6204 161.842 39.2513 161.205 39.4188Z" fill="#FFDD00" stroke="#17294D" stroke-width="0.5" stroke-linecap="round" stroke-linejoin="round"/>
<path d="M179.96 66.0534L175.565 65.7225C175.058 65.7784 174.55 65.6108 174.185 65.2613L167.9 59.2964C167.227 58.6573 166.161 58.6366 165.461 59.2467L161.025 63.1206C159.728 63.8342 160.126 64.8063 160.968 64.8911C160.287 65.2882 161.116 66.647 161.797 66.2479C161.152 66.5229 162.192 68.3161 162.837 68.039C162.19 68.616 163.949 70.5685 164.594 69.9935L166.324 68.8704C166.988 68.4382 167.879 68.5602 168.399 69.1538L171.617 72.8374C171.884 73.1435 172.243 73.3586 172.643 73.4517L178.283 74.9346" fill="#F4F5F5"/>
<path d="M179.96 66.0534L175.565 65.7225C175.058 65.7784 174.55 65.6108 174.185 65.2613L167.9 59.2964C167.227 58.6573 166.161 58.6366 165.461 59.2467L161.025 63.1206C159.728 63.8342 160.126 64.8063 160.968 64.8911C160.287 65.2882 161.116 66.647 161.797 66.2479C161.152 66.5229 162.192 68.3161 162.837 68.039C162.19 68.616 163.949 70.5685 164.594 69.9935L166.324 68.8704C166.988 68.4382 167.879 68.5602 168.399 69.1538L171.617 72.8374C171.884 73.1435 172.243 73.3586 172.643 73.4517L178.283 74.9346" stroke="#17294D" stroke-width="0.5" stroke-linecap="round" stroke-linejoin="round"/>
<path d="M160.968 64.8913C160.968 64.8913 165.333 61.2242 165.758 60.9243C166.183 60.6244 166.997 61.0422 166.997 61.0422" fill="#F4F5F5"/>
<path d="M160.968 64.8913C160.968 64.8913 165.333 61.2242 165.758 60.9243C166.183 60.6244 166.997 61.0422 166.997 61.0422" stroke="#17294D" stroke-width="0.5" stroke-linecap="round" stroke-linejoin="round"/>
<path d="M161.797 66.2473C161.797 66.2473 166.007 62.9256 166.333 62.6299C166.661 62.332 167.329 62.7105 167.329 62.7105" fill="#F4F5F5"/>
<path d="M161.797 66.2473C161.797 66.2473 166.007 62.9256 166.333 62.6299C166.661 62.332 167.329 62.7105 167.329 62.7105" stroke="#17294D" stroke-width="0.5" stroke-linecap="round" stroke-linejoin="round"/>
<path d="M162.839 68.0387C162.839 68.0387 166.849 65.1431 167.202 64.9177C167.555 64.6922 168.304 65.23 168.433 65.3913" fill="#F4F5F5"/>
<path d="M162.839 68.0387C162.839 68.0387 166.849 65.1431 167.202 64.9177C167.555 64.6922 168.304 65.23 168.433 65.3913" stroke="#17294D" stroke-width="0.5" stroke-linecap="round" stroke-linejoin="round"/>
<path d="M135.464 101.249L135.475 101.319C136.054 104.957 135.145 108.149 133.398 108.598C123.172 111.228 116.72 114.033 110.198 114.289C108.777 114.345 105.121 112.484 103.285 109.925L105.795 109.224C105.795 109.224 119.162 109.133 121.074 107.917C122.417 107.063 121.744 99.4806 124.345 94.3224C126.456 94.5188 128.761 94.7277 131.328 94.8767C133.102 94.9801 134.885 97.7371 135.464 101.249Z" fill="#081B3F"/>
<path d="M118.092 112.902C116.646 124.908 116.221 137.872 116.491 151.492C116.544 154.197 118.555 156.418 121.218 156.698C122.565 156.84 123.867 156.462 124.916 155.715C125.967 154.971 126.765 153.856 127.101 152.522C130.45 139.206 133.145 126.447 134.699 114.648C135.244 110.534 135.648 106.536 135.896 102.672C136.173 98.3724 133.077 94.6681 128.845 94.2234C124.646 93.7808 120.763 96.7074 119.953 100.916C119.204 104.792 118.591 108.79 118.094 112.902H118.092Z" fill="#0F265C"/>
<path d="M126.646 154.137C126.646 154.137 123.491 149.512 127.018 148.226C130.546 146.937 133.976 150.495 133.976 150.495C133.976 150.495 143.999 155.938 144.991 156.515C145.983 157.09 147.62 159.76 145.719 160.937C143.817 162.114 135.543 165.467 131.573 163.167C127.604 160.865 125.303 159.618 123.897 159.254C122.491 158.89 117.453 156.464 117.073 155.061C116.692 153.657 116.519 149.88 116.519 149.88C116.519 149.88 125.371 156.387 126.646 154.139V154.137Z" fill="#F4F5F5" stroke="#17294D" stroke-width="0.5" stroke-linecap="round" stroke-linejoin="round"/>
<path d="M126.646 154.137C126.646 154.137 134.407 160.377 138.053 159.802C141.699 159.227 145.105 158.106 144.991 156.513" fill="#F4F5F5"/>
<path d="M126.646 154.137C126.646 154.137 134.407 160.377 138.053 159.802C141.699 159.227 145.105 158.106 144.991 156.513" stroke="#17294D" stroke-width="0.5" stroke-linecap="round" stroke-linejoin="round"/>
<path d="M102.325 18.8366C102.325 19.515 102.078 20.0652 101.775 20.0652C101.471 20.0652 101.225 19.515 101.225 18.8366C101.225 18.1582 101.473 17.6081 101.775 17.6081C102.078 17.6081 102.325 18.1582 102.325 18.8366Z" fill="#0F265C" stroke="#1B294A" stroke-width="0.5" stroke-linecap="round" stroke-linejoin="round"/>
<path d="M113.051 18.8366C113.051 19.515 112.803 20.0652 112.501 20.0652C112.198 20.0652 111.951 19.515 111.951 18.8366C111.951 18.1582 112.198 17.6081 112.501 17.6081C112.803 17.6081 113.051 18.1582 113.051 18.8366Z" fill="#0F265C" stroke="#1B294A" stroke-width="0.5" stroke-linecap="round" stroke-linejoin="round"/>
<path d="M106.755 18.5863C106.755 18.5863 104.19 21.5605 104.072 21.8976C103.953 22.2348 107.39 24.0859 107.39 24.0859" fill="#F4F5F5"/>
<path d="M106.755 18.5863C106.755 18.5863 104.19 21.5605 104.072 21.8976C103.953 22.2348 107.39 24.0859 107.39 24.0859" stroke="#17294D" stroke-width="0.5" stroke-linecap="round" stroke-linejoin="round"/>
<path d="M110.824 26.5678L103.955 27.5399C103.955 27.5399 104.759 29.9742 107.504 29.9742C110.249 29.9742 110.824 26.5657 110.824 26.5657V26.5678Z" stroke="#0F265C" stroke-width="0.5" stroke-linecap="round" stroke-linejoin="round"/>
<path d="M154.592 29.8664C154.592 30.5448 154.344 31.0949 154.042 31.0949C153.737 31.0949 153.492 30.5448 153.492 29.8664C153.492 29.188 153.74 28.6378 154.042 28.6378C154.344 28.6378 154.592 29.188 154.592 29.8664Z" fill="#0F265C" stroke="#1B294A" stroke-width="0.5" stroke-linecap="round" stroke-linejoin="round"/>
<path d="M165.32 29.8664C165.32 30.5448 165.072 31.0949 164.77 31.0949C164.468 31.0949 164.22 30.5448 164.22 29.8664C164.22 29.188 164.468 28.6378 164.77 28.6378C165.072 28.6378 165.32 29.188 165.32 29.8664Z" fill="#0F265C" stroke="#1B294A" stroke-width="0.5" stroke-linecap="round" stroke-linejoin="round"/>
<path d="M159.022 29.6185C159.022 29.6185 156.457 32.5926 156.339 32.9298C156.22 33.2669 159.657 35.118 159.657 35.118" fill="#F4F5F5"/>
<path d="M159.022 29.6185C159.022 29.6185 156.457 32.5926 156.339 32.9298C156.22 33.2669 159.657 35.118 159.657 35.118" stroke="#17294D" stroke-width="0.5" stroke-linecap="round" stroke-linejoin="round"/>
<path d="M117.314 21.6412L118.496 21.7529L118.018 25.6743L117.176 26.2369L117.314 21.6412Z" fill="#F4F5F5"/>
<path d="M98.0046 21.6412L96.8203 21.7529L97.2982 25.6743L98.142 26.2369L98.0046 21.6412Z" fill="#F4F5F5"/>
<path d="M148.996 32.2537L150.35 32.0841L150.485 37.2114L149.76 36.837L148.996 32.2537Z" fill="#F4F5F5"/>
<path d="M168.249 32.4624H169.443L168.881 36.8202L168.27 37.0726L168.249 32.4624Z" fill="#F4F5F5"/>
<path d="M122.19 14.1478C122.19 14.1478 122.195 14.1354 122.197 14.1292C122.935 11.7693 120.981 8.9709 119.737 7.11566C117.948 4.44552 115.358 2.2759 112.279 1.16524C110.299 0.451681 107.258 -0.237055 105.239 0.718488C104.382 1.12387 103.653 1.81054 102.845 2.30279C101.671 3.01634 100.487 3.18594 99.1211 3.12389C98.0553 3.07425 96.9683 2.98945 95.9258 2.83847C93.0709 2.42275 90.8928 3.83745 90.2267 6.73303C89.772 8.70409 90.1675 10.8882 91.5801 12.4146C92.5571 13.4715 93.6609 14.4208 94.547 15.5563C95.5092 16.7869 95.3062 18.3381 96.1267 19.6308C96.4439 20.1313 96.8309 20.6567 97.1882 21.1179C97.2009 19.5067 97.0825 17.9058 97.0593 16.3009C97.0402 14.9523 98.1335 14.5677 99.3516 14.185C100.041 13.9699 100.99 13.6266 101.458 13.0557C101.902 12.5118 102.008 11.9575 102.782 11.699C103.839 11.3473 105.004 11.7775 105.954 12.2243C107.094 12.762 108.02 12.8055 109.274 12.5573C110.779 12.2574 113.899 11.0888 113.99 9.20669C114.121 10.3091 114.277 11.4859 114.92 12.4249C115.557 13.3556 116.527 14.034 117.124 14.9937C118.378 17.0144 117.667 19.1096 117.838 21.2813C117.988 20.3505 118.534 19.7404 119.245 19.1675C120.101 18.4746 120.619 17.5687 121.006 16.5677C121.328 15.7362 121.928 14.9813 122.193 14.154L122.19 14.1478Z" fill="#0F265C" stroke="#1B294A" stroke-width="0.5" stroke-linecap="round" stroke-linejoin="round"/>
<path d="M142.141 19.3888C144.568 18.6236 150.963 13.3143 156.943 13.1344C162.924 12.9544 169.078 14.5739 168.416 20.2885C167.754 26.0032 153.723 25.7777 150.318 22.9442C146.913 20.1086 142.141 19.3888 142.141 19.3888Z" fill="#0F265C"/>
<path d="M83.8064 88.3619C83.8064 89.3236 83.7155 90.2647 83.5421 91.1768C82.7448 95.3506 80.2114 98.9246 76.7031 101.156C75.1361 102.151 73.3767 102.881 71.4904 103.274C70.433 103.495 69.3376 103.611 68.2147 103.611C65.7532 103.611 63.427 103.055 61.3567 102.06C60.0985 101.458 58.9375 100.693 57.8992 99.7974C56.9898 99.0114 56.1757 98.1262 55.4736 97.1541C54.3909 95.6567 53.5788 93.9607 53.103 92.1324C52.7879 90.9245 52.623 89.6608 52.623 88.3598C52.623 83.9585 54.5283 79.9937 57.5777 77.2118C58.6626 76.2211 59.8912 75.3814 61.2298 74.7237C61.5597 74.5624 61.896 74.4114 62.2385 74.2707C62.947 73.9832 63.685 73.7433 64.4421 73.5593C65.6495 73.2656 66.9141 73.1084 68.2147 73.1084C70.2215 73.1084 72.1417 73.4786 73.9032 74.1549C76.6101 75.1932 78.9468 76.9492 80.6682 79.1829C82.637 81.7372 83.8064 84.9141 83.8064 88.3578V88.3619Z" fill="#F4F5F5" stroke="#0F265C" stroke-width="0.75" stroke-miterlimit="10"/>
<path d="M73.9013 74.1591C70.5537 73.3049 69.103 74.4197 68.4855 75.2718C67.701 76.3597 67.8342 80.8375 67.8617 82.1633C67.8892 83.489 66.8319 85.1581 65.6138 85.5284C64.3936 85.9007 61.7396 86.9596 59.4896 88.364C57.2417 89.7683 54.8563 89.5574 54.8288 85.82C54.8013 82.0826 59.2993 80.0164 60.9805 79.2201C62.6595 78.4259 64.6389 75.6958 64.9096 74.5293C65.0005 74.1322 64.7764 73.8116 64.438 73.5613C65.6455 73.2676 66.9101 73.1104 68.2106 73.1104C70.2175 73.1104 72.1376 73.4807 73.8992 74.157L73.9013 74.1591Z" fill="#0F265C"/>
<path d="M77.3673 96.2975C76.8915 98.3637 73.6814 100.511 71.4461 99.8218C69.2109 99.1331 66.8086 96.7629 65.711 96.3782C64.6135 95.9935 61.4034 95.0607 58.9186 96.6201C57.5187 97.4992 57.5779 98.8146 57.8972 99.797C56.9879 99.0111 56.1737 98.1258 55.4716 97.1538C54.3889 95.6563 53.5769 93.9603 53.1011 92.132C52.786 90.9241 52.621 89.6604 52.621 88.3595C52.621 83.9582 54.5264 79.9933 57.5758 77.2115C58.6606 76.2208 59.8893 75.381 61.2279 74.7233C61.2469 74.8185 61.2448 74.9219 61.2215 75.0294C60.9297 76.3076 57.6583 78.7192 56.436 79.9747C55.2137 81.2301 52.3778 84.8558 53.2068 88.5622C54.0358 92.2664 56.8081 93.2406 59.1703 92.3078C61.5303 91.3771 66.2926 88.7235 67.3288 88.2581C68.365 87.7928 69.9785 88.1961 70.6425 88.8662C71.3044 89.5342 74.4934 92.0865 75.4662 92.7752C76.4389 93.464 77.8473 94.2334 77.3715 96.2975H77.3673Z" fill="#0F265C"/>
<path d="M83.5422 91.1764C82.745 95.3502 80.2116 98.9241 76.7033 101.156C75.1363 102.151 73.3769 102.881 71.4905 103.274C70.4332 103.495 69.3378 103.611 68.2149 103.611C65.7533 103.611 63.4272 103.054 61.3569 102.06C60.695 101.445 60.2001 100.91 60.2001 100.678C60.2001 99.981 61.9427 98.587 64.7404 99.6212C67.5382 100.653 70.3888 103.028 72.6832 102.382C74.9798 101.737 77.9362 99.646 78.8857 97.6335C79.8352 95.6211 80.6282 92.316 76.7731 89.3729C72.9201 86.4297 71.1776 85.3749 70.9132 83.2032C70.6383 80.9322 70.9936 76.2848 71.7316 75.5878C72.4718 74.8908 77.1791 76.049 78.2216 78.3014C79.2663 80.5537 78.6403 84.2849 79.6808 86.3408C80.6366 88.2291 81.9351 92.012 83.5401 91.1743L83.5422 91.1764Z" fill="#0F265C"/>
<path d="M118.627 53.2837L118.598 52.6942L117.435 52.7521L117.352 52.7563L116.271 52.81L116.189 52.8142L113.639 52.9424L113.668 53.5319L112.956 53.567L113.154 57.3871C113.207 58.3923 113.782 59.3023 114.698 59.8215C115.237 60.1421 115.859 60.3386 116.491 60.3841H116.513H116.532C117.158 60.2724 117.754 60.0159 118.257 59.6415C119.112 59.0335 119.592 58.0697 119.539 57.0645L119.34 53.2444L118.627 53.2795V53.2837Z" fill="#C3AA7E"/>
<path d="M114.778 59.701C115.286 60.0051 115.876 60.1974 116.504 60.2429C117.126 60.1333 117.69 59.881 118.164 59.5294C118.949 58.9709 119.437 58.0671 119.386 57.0764L119.196 53.4011L113.116 53.7092L113.306 57.3846C113.357 58.3773 113.939 59.2274 114.776 59.7031L114.778 59.701Z" fill="#001F58"/>
<path d="M116.864 58.4812L116.03 58.5247L115.831 54.7335L116.668 54.6922L116.687 55.0769L116.258 55.0975L116.417 58.1193L116.845 58.0965L116.864 58.4812Z" fill="#C3AA7E"/>
<path d="M117.094 54.6694L117.28 58.2516L117.686 58.231L117.513 54.8907L118.53 54.3633L118.509 53.9352L117.094 54.6694Z" fill="#C3AA7E"/>
<path d="M118.674 57.0996L118.614 55.9641L118.217 56.1709L118.265 57.1203C118.318 58.1213 117.5 58.9776 116.44 59.0314C115.383 59.0851 114.48 58.3137 114.427 57.3147L114.379 56.3654L113.962 56.1999L114.021 57.3354C114.078 58.4171 114.954 59.2754 116.053 59.4037C116.21 59.4243 116.35 59.4843 116.47 59.5691C116.582 59.4719 116.713 59.3995 116.868 59.3623C117.948 59.1244 118.731 58.1813 118.676 57.0996H118.674Z" fill="#C3AA7E"/>
<path d="M118.565 55.0484L117.766 55.4662L117.79 55.8922L118.588 55.4744L118.565 55.0484Z" fill="#C3AA7E"/>
<path d="M115.341 54.7588L115.527 58.341L115.119 58.3617L114.946 55.0214L113.88 54.5995L113.856 54.1714L115.341 54.7588Z" fill="#C3AA7E"/>
<path d="M113.913 55.2816L114.752 55.6167L114.773 56.0448L113.937 55.7098L113.913 55.2816Z" fill="#C3AA7E"/>
<path d="M116.424 56.1689L115.261 55.7077L115.284 56.1358L116.445 56.595L116.957 56.3261L116.935 55.9001L116.424 56.1689Z" fill="#C3AA7E"/>
<path d="M117.284 52.9271L116.345 52.9745L116.366 53.3701L117.305 53.3226L117.284 52.9271Z" fill="#001F58"/>
<path d="M118.451 52.844L117.512 52.8907L117.533 53.2863L118.472 53.2395L118.451 52.844Z" fill="#B42940"/>
<path d="M116.12 52.9834L113.795 53.1011L113.816 53.4966L116.141 53.3789L116.12 52.9834Z" fill="#F8CF3F"/>
<path d="M90.2585 57.3641L89.9688 57.3827L89.9286 56.7705C89.9265 56.7395 89.9011 56.6588 89.8821 56.6299C89.8017 56.5058 89.6093 56.543 89.5353 56.6568C89.512 56.6919 89.4845 56.7788 89.4887 56.8181L89.5289 57.4117L89.2329 57.4303L89.1906 56.7912C89.1906 56.7747 89.1589 56.7002 89.1483 56.6816C89.0764 56.5637 88.8882 56.5823 88.8099 56.6878C88.7824 56.725 88.7486 56.8243 88.7528 56.8677L88.793 57.4613L88.5033 57.4799L88.4314 56.4231L88.7211 56.4044L88.7274 56.512C88.9135 56.3155 89.2646 56.2845 89.4274 56.5141C89.5712 56.2617 90.0407 56.2204 90.1718 56.4975C90.1845 56.5223 90.2077 56.5927 90.2098 56.6175L90.2606 57.3662L90.2585 57.3641Z" fill="#152559"/>
<path d="M93.3882 56.212L93.3819 56.1045L93.6716 56.0859L93.7435 57.1428L93.4538 57.1614L93.4475 57.0538C93.384 57.1076 93.3163 57.1655 93.2296 57.1883C92.7179 57.3268 92.369 56.7912 92.5762 56.3961C92.7263 56.1086 93.1197 55.9969 93.3925 56.2141L93.3882 56.212ZM93.0372 56.3444C92.6946 56.4106 92.739 56.9649 93.1154 56.9628C93.5722 56.9587 93.513 56.2513 93.0372 56.3444Z" fill="#152559"/>
<path d="M91.3116 56.3448L91.3053 56.2373L91.595 56.2187L91.6669 57.2755L91.3771 57.2942L91.3708 57.1866C91.1445 57.4141 90.7893 57.3831 90.5841 57.1577C90.4192 56.9756 90.3959 56.7006 90.5207 56.4937C90.6772 56.229 91.0642 56.1401 91.3158 56.3469L91.3116 56.3448ZM90.9669 56.4772C90.6053 56.5454 90.6708 57.1287 91.0663 57.0956C91.4956 57.0584 91.4216 56.3924 90.9669 56.4772Z" fill="#152559"/>
<path d="M94.8833 55.6061L94.9171 56.1066C95.0567 55.9722 95.2851 55.9081 95.4733 55.9949C95.6108 56.0591 95.6552 56.1831 95.6721 56.3135C95.7038 56.541 95.6932 56.785 95.7186 57.0146L95.4289 57.0332L95.3887 56.421C95.3887 56.3962 95.3676 56.3341 95.357 56.3093C95.2893 56.1604 95.08 56.1769 94.9954 56.3052C94.9658 56.3486 94.9404 56.4458 94.9446 56.4955L94.9827 57.0601L94.693 57.0787L94.5957 55.6226L94.8854 55.604L94.8833 55.6061Z" fill="#152559"/>
<path d="M96.4123 55.8828C97.015 55.8 97.3449 56.4743 96.9093 56.8424C96.6301 57.0782 96.1691 57.0141 95.9788 56.7225C95.7652 56.3936 95.9788 55.9427 96.4102 55.8828H96.4123ZM96.4208 56.1351C96.0887 56.1971 96.1141 56.737 96.4906 56.7411C96.9558 56.7452 96.9093 56.0441 96.4208 56.1351Z" fill="#152559"/>
<path d="M98.4107 56.8429L98.1209 56.8615C98.1104 56.7271 98.1061 56.5926 98.0934 56.4582C98.085 56.361 98.0808 56.1769 98.0216 56.0963C97.9306 55.9722 97.717 56.0383 97.662 56.1666C97.6493 56.1955 97.6303 56.2803 97.6325 56.3113L97.6705 56.8905L97.3808 56.9091L97.3089 55.8522L97.5986 55.8336L97.605 55.9349C97.7466 55.8005 97.9708 55.7343 98.1611 55.8232C98.2605 55.8687 98.3303 55.9701 98.3472 56.0673C98.3853 56.2865 98.3705 56.5182 98.3916 56.7374C98.3959 56.7705 98.4106 56.8057 98.4064 56.8408L98.4107 56.8429Z" fill="#152559"/>
<path d="M94.259 55.6605L94.2844 56.0452L94.4597 56.0348L94.4745 56.2582L94.3118 56.2686L94.3013 56.2789L94.3562 57.1021L94.0668 57.1207L94.0119 56.2872L93.8598 56.2975L93.845 56.0741L93.9971 56.0638L93.9718 55.6791L94.259 55.6605Z" fill="#152559"/>
<path d="M92.0811 56.3028L92.155 56.2097C92.2036 56.1683 92.2796 56.1414 92.3472 56.1435C92.3683 56.1435 92.4338 56.1539 92.438 56.1745C92.4444 56.2138 92.3725 56.3421 92.3768 56.3917C92.3049 56.3855 92.2416 56.3669 92.193 56.431C92.1444 56.4951 92.1381 56.6564 92.1402 56.7371C92.1423 56.9046 92.1698 57.0742 92.174 57.2418L91.8846 57.2604L91.8128 56.2035L92.0705 56.187L92.079 56.3028H92.0811Z" fill="#152559"/>
<path d="M24.6899 200.671H19.4603L32.4741 145.252H42.5697L24.6899 200.671Z" fill="#0F265C"/>
<path d="M235.31 200.671H240.54L227.524 145.252H217.428L235.31 200.671Z" fill="#0F265C"/>
<path d="M132.614 200.671H127.384L124.952 145.252H135.048L132.614 200.671Z" fill="#0F265C"/>
<path d="M243.539 142.077C243.539 149.475 16.4595 149.475 16.4595 142.077V135.944H243.539V142.077Z" fill="#F4F5F5" stroke="#222D5A" stroke-width="0.75" stroke-miterlimit="10"/>
<path d="M130 142.077C192.705 142.077 243.538 139.331 243.538 135.944C243.538 132.558 192.705 129.812 130 129.812C67.2944 129.812 16.4615 132.558 16.4615 135.944C16.4615 139.331 67.2944 142.077 130 142.077Z" fill="#F4F5F5" stroke="#222D5A" stroke-width="0.75" stroke-miterlimit="10"/>
<path d="M200.656 107.287H59.3418C57.142 107.287 55.3587 109.022 55.3587 111.162V183.461C55.3587 185.601 57.142 187.336 59.3418 187.336H200.656C202.856 187.336 204.639 185.601 204.639 183.461V111.162C204.639 109.022 202.856 107.287 200.656 107.287Z" fill="#F4F5F5" stroke="#222D5A" stroke-width="0.75" stroke-miterlimit="10"/>
<path d="M94.1344 187.336H69.7024V192.595H94.1344V187.336Z" fill="#F4F5F5" stroke="#222D5A" stroke-width="0.75" stroke-miterlimit="10"/>
<path d="M190.296 187.336H165.864V192.595H190.296V187.336Z" fill="#F4F5F5" stroke="#222D5A" stroke-width="0.75" stroke-miterlimit="10"/>
<path d="M196.277 111.984H63.721C61.5212 111.984 59.7379 113.718 59.7379 115.858V183.461C59.7379 185.601 61.5212 187.336 63.721 187.336H196.277C198.477 187.336 200.26 185.601 200.26 183.461V115.858C200.26 113.718 198.477 111.984 196.277 111.984Z" fill="#F4F5F5" stroke="#222D5A" stroke-width="0.75" stroke-miterlimit="10"/>
<path d="M152.126 134.773H107.874C107.117 134.773 106.504 135.369 106.504 136.105V158.516C106.504 159.251 107.117 159.848 107.874 159.848H152.126C152.883 159.848 153.496 159.251 153.496 158.516V136.105C153.496 135.369 152.883 134.773 152.126 134.773Z" fill="#F4F5F5" stroke="#222D5A" stroke-width="0.75" stroke-miterlimit="10"/>
<path d="M152.126 141.428H107.874C107.117 141.428 106.504 142.025 106.504 142.761V158.515C106.504 159.251 107.117 159.848 107.874 159.848H152.126C152.883 159.848 153.496 159.251 153.496 158.515V142.761C153.496 142.025 152.883 141.428 152.126 141.428Z" fill="#CFCDCD" stroke="#222D5A" stroke-width="0.75" stroke-miterlimit="10"/>
<path d="M221.167 192.593H38.8332C35.3355 192.593 32.5001 195.35 32.5001 198.752C32.5001 202.154 35.3355 204.912 38.8332 204.912H221.167C224.665 204.912 227.5 202.154 227.5 198.752C227.5 195.35 224.665 192.593 221.167 192.593Z" fill="#F4F5F5" stroke="#222D5A" stroke-width="0.75" stroke-miterlimit="10"/>
<path d="M223.813 204.913H36.1866C34.1506 204.913 32.5001 206.519 32.5001 208.5V249.271C32.5001 251.252 34.1506 252.857 36.1866 252.857H223.813C225.85 252.857 227.5 251.252 227.5 249.271V208.5C227.5 206.519 225.85 204.913 223.813 204.913Z" fill="#F4F5F5" stroke="#222D5A" stroke-width="0.75" stroke-miterlimit="10"/>
<path d="M59.7379 224.338C63.1305 224.338 65.8808 221.663 65.8808 218.363C65.8808 215.063 63.1305 212.387 59.7379 212.387C56.3453 212.387 53.5951 215.063 53.5951 218.363C53.5951 221.663 56.3453 224.338 59.7379 224.338Z" fill="#0F265C"/>
<path d="M176.082 178.153C178.609 178.153 180.656 176.161 180.656 173.704C180.656 171.247 178.609 169.255 176.082 169.255C173.556 169.255 171.508 171.247 171.508 173.704C171.508 176.161 173.556 178.153 176.082 178.153Z" fill="#CFCDCD" stroke="#222D5A" stroke-width="0.75" stroke-miterlimit="10"/>
<path d="M224.431 247.284C223.774 247.284 223.161 246.878 222.944 246.238C221.315 241.421 216.075 237.673 206.923 234.776C198.399 232.079 187.811 230.445 176.598 228.714C163.737 226.73 150.44 224.678 140.434 220.851C128.679 216.355 122.981 209.916 123.016 201.166C123.05 192.786 126.028 186.036 131.87 181.104C138.174 175.781 147.585 172.686 159.84 171.9C168.869 171.321 175.981 172.26 176.279 172.298C177.136 172.415 177.733 173.181 177.614 174.014C177.496 174.847 176.704 175.428 175.85 175.312C175.571 175.275 147.767 171.704 133.912 183.405C128.785 187.736 126.172 193.714 126.141 201.175C126.112 208.625 131.016 213.976 141.573 218.014C151.263 221.721 164.39 223.746 177.085 225.705C199.986 229.24 221.616 232.576 225.913 245.283C226.183 246.081 225.736 246.942 224.915 247.205C224.754 247.256 224.588 247.282 224.426 247.282L224.431 247.284Z" fill="#222D5A"/>
</svg>
