<svg width="48" height="16" viewBox="0 0 48 16" fill="none" xmlns="http://www.w3.org/2000/svg">
<path fill-rule="evenodd" clip-rule="evenodd" d="M31.3769 0C32.8715 0 34.0722 0.336247 35.0062 0.687372L34.3244 3.96801C32.5876 3.14227 31.0554 3.2003 30.5005 3.27618C29.3791 3.42645 28.8675 4.01711 28.8545 4.57058C28.817 6.39613 34.3057 6.62228 34.2898 10.7063C34.2754 13.9245 31.6104 16 27.5371 16C25.8017 15.9836 24.1283 15.6087 23.2246 15.1787L23.9265 11.788C24.8273 12.2224 25.9602 12.7967 27.909 12.7655C29.026 12.7476 30.2194 12.2894 30.231 11.2509C30.2367 10.5724 29.7294 10.0859 28.2188 9.32713C26.7487 8.58769 24.7971 7.34387 24.8245 5.11512C24.8461 2.10378 27.5429 0 31.3769 0ZM44.8694 0.282685L48 15.759H44.4125L43.9426 13.4484H38.9685L38.1584 15.759H34.088L39.9068 1.41789C40.1817 0.742169 40.7923 0.297935 41.5194 0.28307L41.5571 0.282685H44.8694ZM23.7665 0.282685L20.5595 15.759H16.6808L19.8893 0.282685H23.7665ZM6.69221 0.282685C7.53252 0.282685 8.28923 0.859959 8.48093 1.85977L10.114 10.8164L14.1512 0.282685H18.2245L11.9402 15.759H7.84097L4.74782 3.40859C4.56045 2.64832 4.39757 2.36861 3.8268 2.04873C2.89424 1.52501 1.35487 1.03552 0 0.732007L0.0922467 0.282685H6.69221ZM42.1265 4.46346L40.0841 10.2749H43.3012L42.1265 4.46346Z" fill="#0F265C"/>
</svg>
